# xmcd
#
# Track frame offsets: 
#        150
#        20148
#        38131
#        54155
#        79295
#        98269
#        117290
#        140661
#        160671
#        179476
#        201441
#
# Disc length: 2977 seconds
#
# Revision: 0
# Processed by: cddbd v1.5.2PL0 Copyright (c) Steve Scherf et al.
# Submitted via: ExactAudioCopy v0.99pb4
#
DISCID=8f0b9f0b
DTITLE=Dewey Terry - Pay Back
DYEAR=2002
DGENRE=Blues
TTITLE0=Strange
TTITLE1=Big Boy Pete
TTITLE2=Honest I Do
TTITLE3=In The Dark
TTITLE4=C.C.Rider
TTITLE5=Wake Me Up
TTITLE6=You Rock Me All Night Long
TTITLE7=Pedal To The Metal
TTITLE8=Magic Lover
TTITLE9=You Rock My World
TTITLE10=County Jail
EXTD=
EXTT0=
EXTT1=
EXTT2=
EXTT3=
EXTT4=
EXTT5=
EXTT6=
EXTT7=
EXTT8=
EXTT9=
EXTT10=
PLAYORDER=
